# xmcd
#
# Track frame offsets:
#	150
#	16182
#	43475
#	79750
#	110830
#	132993
#	174555
#	198291
#	226790
#	253751
#	276408
#	291415
#
# Disc length: 4138 seconds
#
# Revision: 1
# Processed by: cddbd v1.5.2PL0 Copyright (c) Steve Scherf et al.
# Submitted via: audiograbber 1.83.01
#
DISCID=b210280c
DTITLE=Various Artist - Techno Dröhnung - CD 2
DYEAR=1900
DGENRE=
TTITLE0=Jonah - Sssst... (Listen) (Radio Edit)
TTITLE1=Central Seven - Te Quiero (Pulsedriver Remix)
TTITLE2=Mario Piu and Ricky Leroy - Unicorn (Remix '99) (Mas-Tea Mix)
TTITLE3=Neuroglider - Sarcasmo (The Bright Side)
TTITLE4=Emergency - Lost In Paradise (Techno Mix)
TTITLE5=Atlantis Ita - See You In Next Life (DJ Scot Project Remix)
TTITLE6=Babyboom - Babyboom 2000 (Central Seven Remix)
TTITLE7=Frank Bizarre and F.M.F Greg - Ballade Pour Elise 2000 (Frank Bizarre Mix
TTITLE7=)
TTITLE8=Fladenbrot - Was Guckst Du Lan? (Doug Laurent Back To The Airport Mix)
TTITLE9=Danke Anne Feat. Georg S. - 'Tschuldigung... F*****? (FSK 18 - Mix)
TTITLE10=DJ Taylor and Flow - Gott Tanzte (Original Radio)
TTITLE11=DJ Darkzone - Des Teufels Antwort (Short Cut)
EXTD=
EXTT0=
EXTT1=
EXTT2=
EXTT3=
EXTT4=
EXTT5=
EXTT6=
EXTT7=
EXTT8=
EXTT9=
EXTT10=
EXTT11=
PLAYORDER=
